<svg width="53" height="51" viewBox="0 0 53 51" fill="none" xmlns="http://www.w3.org/2000/svg">
<g filter="url(#filter0_d_1024_9523)">
<path d="M26.137 41.8746C39.5643 41.8746 46.2739 33.2723 46.2739 22.6607C46.2739 12.0492 39.5643 3.4469 26.137 3.4469C12.7096 3.4469 6 12.0492 6 22.6607C6 33.2723 12.7096 41.8746 26.137 41.8746Z" fill="url(#paint0_radial_1024_9523)"/>
<path d="M26.137 41.8746C39.5643 41.8746 46.2739 33.2723 46.2739 22.6607C46.2739 12.0492 39.5643 3.4469 26.137 3.4469C12.7096 3.4469 6 12.0492 6 22.6607C6 33.2723 12.7096 41.8746 26.137 41.8746Z" fill="url(#paint1_radial_1024_9523)"/>
<path d="M26.137 41.8746C39.5643 41.8746 46.2739 33.2723 46.2739 22.6607C46.2739 12.0492 39.5643 3.4469 26.137 3.4469C12.7096 3.4469 6 12.0492 6 22.6607C6 33.2723 12.7096 41.8746 26.137 41.8746Z" fill="url(#paint2_radial_1024_9523)"/>
<path d="M26.137 41.8746C39.5643 41.8746 46.2739 33.2723 46.2739 22.6607C46.2739 12.0492 39.5643 3.4469 26.137 3.4469C12.7096 3.4469 6 12.0492 6 22.6607C6 33.2723 12.7096 41.8746 26.137 41.8746Z" fill="url(#paint3_radial_1024_9523)" fill-opacity="0.6"/>
<path d="M26.137 41.8746C39.5643 41.8746 46.2739 33.2723 46.2739 22.6607C46.2739 12.0492 39.5643 3.4469 26.137 3.4469C12.7096 3.4469 6 12.0492 6 22.6607C6 33.2723 12.7096 41.8746 26.137 41.8746Z" fill="url(#paint4_radial_1024_9523)"/>
<path d="M26.137 41.8746C39.5643 41.8746 46.2739 33.2723 46.2739 22.6607C46.2739 12.0492 39.5643 3.4469 26.137 3.4469C12.7096 3.4469 6 12.0492 6 22.6607C6 33.2723 12.7096 41.8746 26.137 41.8746Z" fill="url(#paint5_radial_1024_9523)"/>
<path d="M26.137 41.8746C39.5643 41.8746 46.2739 33.2723 46.2739 22.6607C46.2739 12.0492 39.5643 3.4469 26.137 3.4469C12.7096 3.4469 6 12.0492 6 22.6607C6 33.2723 12.7096 41.8746 26.137 41.8746Z" fill="url(#paint6_radial_1024_9523)"/>
<path d="M26.137 41.8746C39.5643 41.8746 46.2739 33.2723 46.2739 22.6607C46.2739 12.0492 39.5643 3.4469 26.137 3.4469C12.7096 3.4469 6 12.0492 6 22.6607C6 33.2723 12.7096 41.8746 26.137 41.8746Z" fill="url(#paint7_radial_1024_9523)"/>
</g>
<g filter="url(#filter1_f_1024_9523)">
<path d="M8.22852 26.2255C8.54318 27.4693 9.44725 29.8323 12.334 30.5142C12.7643 30.6159 13.1873 30.6898 13.6115 30.7455C13.6321 30.7482 13.6528 30.7505 13.6735 30.7524C19.8661 31.3061 23.9601 26.3114 24.16 20.8774C24.1765 20.4271 24.5399 20.0462 25.0122 20.0404C25.2637 20.0373 25.5245 20.0376 25.7929 20.042C26.2632 20.0499 26.6242 20.4296 26.6409 20.8782C26.843 26.3119 30.933 31.3062 37.1269 30.7524C37.1477 30.7505 37.1684 30.7482 37.189 30.7455C37.6132 30.6898 38.0362 30.6159 38.4665 30.5142C42.2908 29.6108 44.6632 27.2125 45.8765 24.64C45.6883 23.5517 45.4203 22.4974 45.0727 21.4856C44.7096 24.5098 43.0124 24.8917 38.4665 25.9655C38.0923 26.0539 36.8137 26.9045 36.4322 26.9546C32.1168 27.3407 30.9031 24.64 28.457 20.3278L28.4568 20.285C28.4568 20.2652 28.457 20.2454 28.4573 20.2256C28.6157 20.2454 28.7749 20.267 28.9347 20.2905L29.3282 17.8535C29.783 17.2943 30.3909 16.8543 31.0921 16.591C31.2569 16.5231 31.6423 16.3687 32.834 16.1567C34.0635 15.938 37.3457 15.9405 39.349 15.942L39.796 15.9423C40.8537 15.9423 41.8143 16.2353 42.4348 16.5032C41.928 15.8374 41.37 15.2085 40.761 14.6211C40.4447 14.5883 40.1208 14.5697 39.796 14.5697L39.3435 14.5695C38.3453 14.5687 37.0102 14.5677 35.7687 14.5946C34.5658 14.6207 32.7837 14.6938 32.0347 14.8271C30.7964 15.0474 30.2969 15.2239 30.0076 15.3418C29.2123 15.6442 28.5294 16.1103 27.9902 16.698C27.6358 17.0844 27.1336 17.3423 26.596 17.3196C25.7327 17.2831 24.921 17.2873 24.1943 17.3154C23.6593 17.336 23.1604 17.0791 22.8074 16.695C22.2687 16.1087 21.5868 15.6437 20.7928 15.3418C20.5036 15.2239 20.0041 15.0474 18.7657 14.8271C18.0167 14.6938 16.2347 14.6207 15.0318 14.5946C13.7902 14.5677 12.4552 14.5687 11.457 14.5695L11.4385 14.5695C10.9617 15.0253 10.5159 15.5063 10.1011 16.0104C10.3896 15.9677 10.6928 15.9423 11.0045 15.9423L11.4515 15.942C13.4548 15.9405 16.737 15.938 17.9664 16.1567C19.1582 16.3687 19.5435 16.5231 19.7083 16.591C20.3837 16.8446 20.9726 17.2621 21.4214 17.7922L21.913 20.2827C22.0302 20.2617 22.1745 20.2393 22.3431 20.2169C22.3435 20.2395 22.3437 20.2623 22.3437 20.285L22.3434 20.3278C22.6019 26.1075 17.9889 29.5909 13.6735 29.2049C13.292 29.1548 12.9196 29.0894 12.5454 29.001C9.23905 28.2199 9.47933 25.9024 8.54318 23.6949C8.3771 24.5056 8.30381 25.3778 8.22852 26.2255Z" fill="url(#paint8_linear_1024_9523)"/>
</g>
<path fill-rule="evenodd" clip-rule="evenodd" d="M21.5301 13.9692C22.38 14.2924 23.1016 14.8025 23.6565 15.4482C23.9289 15.7651 24.3207 15.9699 24.7382 15.9509C25.5664 15.9134 26.5138 15.9062 27.5279 15.9559C27.9474 15.9765 28.3418 15.7709 28.6152 15.4521C29.1705 14.8046 29.8933 14.293 30.7449 13.9692C31.0342 13.8513 31.5337 13.6748 32.772 13.4545C33.5211 13.3213 35.3031 13.2481 36.506 13.222C37.7475 13.1952 39.0826 13.1962 40.0808 13.1969L40.5333 13.1972C42.2442 13.1972 43.9321 13.713 44.6014 14.0979C46.1073 14.827 47.5009 16.221 47.6008 18.6198C47.6049 18.6557 47.6076 18.6918 47.6088 18.7282C47.7274 22.4181 45.326 27.6954 39.2038 29.1416C38.7735 29.2433 38.3505 29.3172 37.9263 29.373C37.9057 29.3757 37.885 29.378 37.8642 29.3798C31.6216 29.938 27.5161 24.8604 27.3741 19.3772C27.3643 19.0002 27.0744 18.6814 26.6974 18.6728C26.3087 18.6639 25.9351 18.6638 25.5812 18.6704C25.2027 18.6774 24.9109 18.9971 24.9013 19.3756C24.7621 24.8593 20.6525 29.9379 14.4108 29.3798C14.3901 29.378 14.3694 29.3757 14.3488 29.373C13.9246 29.3172 13.5016 29.2433 13.0713 29.1416C6.94904 27.6954 4.54766 22.4181 4.66628 18.7282C4.66745 18.6918 4.67013 18.6557 4.67427 18.6198C4.77421 16.221 6.16773 14.827 7.67362 14.0979C8.34297 13.713 10.0309 13.1972 11.7418 13.1972L12.1943 13.1969C13.1925 13.1962 14.5275 13.1952 15.7691 13.222C16.972 13.2481 18.754 13.3213 19.503 13.4545C20.7414 13.6748 21.2409 13.8513 21.5301 13.9692ZM6.70456 17.3987C7.06402 16.5634 7.73124 15.8807 8.62949 15.3641C9.13456 15.0737 10.3546 14.5697 11.7418 14.5697L12.1888 14.5695C14.1921 14.5679 17.4743 14.5654 18.7037 14.7841C19.8955 14.9961 20.2808 15.1505 20.4456 15.2184C21.121 15.472 21.7099 15.8896 22.1587 16.4197L22.6503 18.9102C22.7675 18.8891 22.9118 18.8667 23.0804 18.8443C23.0808 18.867 23.081 18.8897 23.081 18.9125L23.0807 18.9553C23.3392 24.7349 18.7262 28.2184 14.4108 27.8324C14.0293 27.7822 13.6569 27.7168 13.2827 27.6284C8.73674 26.5545 6.82819 23.1372 6.4651 20.113C6.40918 19.6473 6.38992 19.1909 6.40331 18.7538L6.4037 18.7415L6.4066 18.7416L6.40714 18.7282C6.42715 18.2498 6.52926 17.8061 6.70456 17.3987ZM29.1946 18.8531C29.1943 18.8728 29.1941 18.8926 29.1941 18.9125L29.1943 18.9553C28.9359 24.7349 33.5488 28.2184 37.8642 27.8324C38.2457 27.7822 38.6182 27.7168 38.9924 27.6284C43.5383 26.5545 45.4469 23.1372 45.81 20.113C45.8659 19.6473 45.8852 19.1909 45.8718 18.7538L45.8714 18.7415L45.8685 18.7416L45.8679 18.7282C45.8479 18.2498 45.7458 17.8061 45.5705 17.3987C45.211 16.5634 44.5438 15.8807 43.6456 15.3641C43.1405 15.0737 41.9205 14.5697 40.5333 14.5697L40.0863 14.5695C38.083 14.5679 34.8008 14.5654 33.5713 14.7841C32.3796 14.9961 31.9943 15.1505 31.8294 15.2184C31.1282 15.4817 30.5203 15.9218 30.0655 16.481L29.672 18.9179C29.5122 18.8944 29.353 18.8728 29.1946 18.8531Z" fill="url(#paint9_radial_1024_9523)"/>
<path fill-rule="evenodd" clip-rule="evenodd" d="M21.5301 13.9692C22.38 14.2924 23.1016 14.8025 23.6565 15.4482C23.9289 15.7651 24.3207 15.9699 24.7382 15.9509C25.5664 15.9134 26.5138 15.9062 27.5279 15.9559C27.9474 15.9765 28.3418 15.7709 28.6152 15.4521C29.1705 14.8046 29.8933 14.293 30.7449 13.9692C31.0342 13.8513 31.5337 13.6748 32.772 13.4545C33.5211 13.3213 35.3031 13.2481 36.506 13.222C37.7475 13.1952 39.0826 13.1962 40.0808 13.1969L40.5333 13.1972C42.2442 13.1972 43.9321 13.713 44.6014 14.0979C46.1073 14.827 47.5009 16.221 47.6008 18.6198C47.6049 18.6557 47.6076 18.6918 47.6088 18.7282C47.7274 22.4181 45.326 27.6954 39.2038 29.1416C38.7735 29.2433 38.3505 29.3172 37.9263 29.373C37.9057 29.3757 37.885 29.378 37.8642 29.3798C31.6216 29.938 27.5161 24.8604 27.3741 19.3772C27.3643 19.0002 27.0744 18.6814 26.6974 18.6728C26.3087 18.6639 25.9351 18.6638 25.5812 18.6704C25.2027 18.6774 24.9109 18.9971 24.9013 19.3756C24.7621 24.8593 20.6525 29.9379 14.4108 29.3798C14.3901 29.378 14.3694 29.3757 14.3488 29.373C13.9246 29.3172 13.5016 29.2433 13.0713 29.1416C6.94904 27.6954 4.54766 22.4181 4.66628 18.7282C4.66745 18.6918 4.67013 18.6557 4.67427 18.6198C4.77421 16.221 6.16773 14.827 7.67362 14.0979C8.34297 13.713 10.0309 13.1972 11.7418 13.1972L12.1943 13.1969C13.1925 13.1962 14.5275 13.1952 15.7691 13.222C16.972 13.2481 18.754 13.3213 19.503 13.4545C20.7414 13.6748 21.2409 13.8513 21.5301 13.9692ZM6.70456 17.3987C7.06402 16.5634 7.73124 15.8807 8.62949 15.3641C9.13456 15.0737 10.3546 14.5697 11.7418 14.5697L12.1888 14.5695C14.1921 14.5679 17.4743 14.5654 18.7037 14.7841C19.8955 14.9961 20.2808 15.1505 20.4456 15.2184C21.121 15.472 21.7099 15.8896 22.1587 16.4197L22.6503 18.9102C22.7675 18.8891 22.9118 18.8667 23.0804 18.8443C23.0808 18.867 23.081 18.8897 23.081 18.9125L23.0807 18.9553C23.3392 24.7349 18.7262 28.2184 14.4108 27.8324C14.0293 27.7822 13.6569 27.7168 13.2827 27.6284C8.73674 26.5545 6.82819 23.1372 6.4651 20.113C6.40918 19.6473 6.38992 19.1909 6.40331 18.7538L6.4037 18.7415L6.4066 18.7416L6.40714 18.7282C6.42715 18.2498 6.52926 17.8061 6.70456 17.3987ZM29.1946 18.8531C29.1943 18.8728 29.1941 18.8926 29.1941 18.9125L29.1943 18.9553C28.9359 24.7349 33.5488 28.2184 37.8642 27.8324C38.2457 27.7822 38.6182 27.7168 38.9924 27.6284C43.5383 26.5545 45.4469 23.1372 45.81 20.113C45.8659 19.6473 45.8852 19.1909 45.8718 18.7538L45.8714 18.7415L45.8685 18.7416L45.8679 18.7282C45.8479 18.2498 45.7458 17.8061 45.5705 17.3987C45.211 16.5634 44.5438 15.8807 43.6456 15.3641C43.1405 15.0737 41.9205 14.5697 40.5333 14.5697L40.0863 14.5695C38.083 14.5679 34.8008 14.5654 33.5713 14.7841C32.3796 14.9961 31.9943 15.1505 31.8294 15.2184C31.1282 15.4817 30.5203 15.9218 30.0655 16.481L29.672 18.9179C29.5122 18.8944 29.353 18.8728 29.1946 18.8531Z" fill="url(#paint10_radial_1024_9523)"/>
<path fill-rule="evenodd" clip-rule="evenodd" d="M21.5301 13.9692C22.38 14.2924 23.1016 14.8025 23.6565 15.4482C23.9289 15.7651 24.3207 15.9699 24.7382 15.9509C25.5664 15.9134 26.5138 15.9062 27.5279 15.9559C27.9474 15.9765 28.3418 15.7709 28.6152 15.4521C29.1705 14.8046 29.8933 14.293 30.7449 13.9692C31.0342 13.8513 31.5337 13.6748 32.772 13.4545C33.5211 13.3213 35.3031 13.2481 36.506 13.222C37.7475 13.1952 39.0826 13.1962 40.0808 13.1969L40.5333 13.1972C42.2442 13.1972 43.9321 13.713 44.6014 14.0979C46.1073 14.827 47.5009 16.221 47.6008 18.6198C47.6049 18.6557 47.6076 18.6918 47.6088 18.7282C47.7274 22.4181 45.326 27.6954 39.2038 29.1416C38.7735 29.2433 38.3505 29.3172 37.9263 29.373C37.9057 29.3757 37.885 29.378 37.8642 29.3798C31.6216 29.938 27.5161 24.8604 27.3741 19.3772C27.3643 19.0002 27.0744 18.6814 26.6974 18.6728C26.3087 18.6639 25.9351 18.6638 25.5812 18.6704C25.2027 18.6774 24.9109 18.9971 24.9013 19.3756C24.7621 24.8593 20.6525 29.9379 14.4108 29.3798C14.3901 29.378 14.3694 29.3757 14.3488 29.373C13.9246 29.3172 13.5016 29.2433 13.0713 29.1416C6.94904 27.6954 4.54766 22.4181 4.66628 18.7282C4.66745 18.6918 4.67013 18.6557 4.67427 18.6198C4.77421 16.221 6.16773 14.827 7.67362 14.0979C8.34297 13.713 10.0309 13.1972 11.7418 13.1972L12.1943 13.1969C13.1925 13.1962 14.5275 13.1952 15.7691 13.222C16.972 13.2481 18.754 13.3213 19.503 13.4545C20.7414 13.6748 21.2409 13.8513 21.5301 13.9692ZM6.70456 17.3987C7.06402 16.5634 7.73124 15.8807 8.62949 15.3641C9.13456 15.0737 10.3546 14.5697 11.7418 14.5697L12.1888 14.5695C14.1921 14.5679 17.4743 14.5654 18.7037 14.7841C19.8955 14.9961 20.2808 15.1505 20.4456 15.2184C21.121 15.472 21.7099 15.8896 22.1587 16.4197L22.6503 18.9102C22.7675 18.8891 22.9118 18.8667 23.0804 18.8443C23.0808 18.867 23.081 18.8897 23.081 18.9125L23.0807 18.9553C23.3392 24.7349 18.7262 28.2184 14.4108 27.8324C14.0293 27.7822 13.6569 27.7168 13.2827 27.6284C8.73674 26.5545 6.82819 23.1372 6.4651 20.113C6.40918 19.6473 6.38992 19.1909 6.40331 18.7538L6.4037 18.7415L6.4066 18.7416L6.40714 18.7282C6.42715 18.2498 6.52926 17.8061 6.70456 17.3987ZM29.1946 18.8531C29.1943 18.8728 29.1941 18.8926 29.1941 18.9125L29.1943 18.9553C28.9359 24.7349 33.5488 28.2184 37.8642 27.8324C38.2457 27.7822 38.6182 27.7168 38.9924 27.6284C43.5383 26.5545 45.4469 23.1372 45.81 20.113C45.8659 19.6473 45.8852 19.1909 45.8718 18.7538L45.8714 18.7415L45.8685 18.7416L45.8679 18.7282C45.8479 18.2498 45.7458 17.8061 45.5705 17.3987C45.211 16.5634 44.5438 15.8807 43.6456 15.3641C43.1405 15.0737 41.9205 14.5697 40.5333 14.5697L40.0863 14.5695C38.083 14.5679 34.8008 14.5654 33.5713 14.7841C32.3796 14.9961 31.9943 15.1505 31.8294 15.2184C31.1282 15.4817 30.5203 15.9218 30.0655 16.481L29.672 18.9179C29.5122 18.8944 29.353 18.8728 29.1946 18.8531Z" fill="url(#paint11_radial_1024_9523)"/>
<path d="M8.6287 15.3642C9.13377 15.0737 10.3538 14.5697 11.741 14.5697C11.881 14.5697 12.0306 14.5696 12.188 14.5695C14.1913 14.568 17.4735 14.5655 18.703 14.7842C19.8947 14.9962 20.28 15.1505 20.4449 15.2185C21.9884 15.7981 23.0802 17.2339 23.0802 18.9125L23.0799 18.9553C23.3384 24.7349 18.7254 28.2184 14.41 27.8324C14.0285 27.7822 13.6561 27.7168 13.2819 27.6284C8.029 26.3876 6.29758 22.0177 6.40293 18.7409L6.40581 18.7416C6.46239 17.2756 7.28833 16.135 8.6287 15.3642Z" fill="url(#paint12_radial_1024_9523)"/>
<path d="M8.6287 15.3642C9.13377 15.0737 10.3538 14.5697 11.741 14.5697C11.881 14.5697 12.0306 14.5696 12.188 14.5695C14.1913 14.568 17.4735 14.5655 18.703 14.7842C19.8947 14.9962 20.28 15.1505 20.4449 15.2185C21.9884 15.7981 23.0802 17.2339 23.0802 18.9125L23.0799 18.9553C23.3384 24.7349 18.7254 28.2184 14.41 27.8324C14.0285 27.7822 13.6561 27.7168 13.2819 27.6284C8.029 26.3876 6.29758 22.0177 6.40293 18.7409L6.40581 18.7416C6.46239 17.2756 7.28833 16.135 8.6287 15.3642Z" fill="url(#paint13_radial_1024_9523)"/>
<path d="M8.6287 15.3642C9.13377 15.0737 10.3538 14.5697 11.741 14.5697C11.881 14.5697 12.0306 14.5696 12.188 14.5695C14.1913 14.568 17.4735 14.5655 18.703 14.7842C19.8947 14.9962 20.28 15.1505 20.4449 15.2185C21.9884 15.7981 23.0802 17.2339 23.0802 18.9125L23.0799 18.9553C23.3384 24.7349 18.7254 28.2184 14.41 27.8324C14.0285 27.7822 13.6561 27.7168 13.2819 27.6284C8.029 26.3876 6.29758 22.0177 6.40293 18.7409L6.40581 18.7416C6.46239 17.2756 7.28833 16.135 8.6287 15.3642Z" fill="url(#paint14_radial_1024_9523)"/>
<path d="M8.6287 15.3642C9.13377 15.0737 10.3538 14.5697 11.741 14.5697C11.881 14.5697 12.0306 14.5696 12.188 14.5695C14.1913 14.568 17.4735 14.5655 18.703 14.7842C19.8947 14.9962 20.28 15.1505 20.4449 15.2185C21.9884 15.7981 23.0802 17.2339 23.0802 18.9125L23.0799 18.9553C23.3384 24.7349 18.7254 28.2184 14.41 27.8324C14.0285 27.7822 13.6561 27.7168 13.2819 27.6284C8.029 26.3876 6.29758 22.0177 6.40293 18.7409L6.40581 18.7416C6.46239 17.2756 7.28833 16.135 8.6287 15.3642Z" fill="url(#paint15_radial_1024_9523)"/>
<ellipse cx="2.13091" cy="2.60319" rx="2.13091" ry="2.60319" transform="matrix(0.907465 -0.420129 0.453282 0.891367 16.0312 17.3158)" fill="url(#paint16_linear_1024_9523)"/>
<path d="M43.6447 15.3642C43.1397 15.0737 41.9196 14.5697 40.5324 14.5697C40.3924 14.5697 40.2429 14.5696 40.0854 14.5695C38.0822 14.568 34.7999 14.5655 33.5705 14.7842C32.3788 14.9962 31.9934 15.1505 31.8286 15.2185C30.2851 15.7981 29.1933 17.2339 29.1933 18.9125L29.1935 18.9553C28.935 24.7349 33.548 28.2184 37.8634 27.8324C38.2449 27.7822 38.6173 27.7168 38.9915 27.6284C44.2444 26.3876 45.9759 22.0177 45.8705 18.7409L45.8676 18.7416C45.8111 17.2756 44.9851 16.135 43.6447 15.3642Z" fill="url(#paint17_radial_1024_9523)"/>
<path d="M43.6447 15.3642C43.1397 15.0737 41.9196 14.5697 40.5324 14.5697C40.3924 14.5697 40.2429 14.5696 40.0854 14.5695C38.0822 14.568 34.7999 14.5655 33.5705 14.7842C32.3788 14.9962 31.9934 15.1505 31.8286 15.2185C30.2851 15.7981 29.1933 17.2339 29.1933 18.9125L29.1935 18.9553C28.935 24.7349 33.548 28.2184 37.8634 27.8324C38.2449 27.7822 38.6173 27.7168 38.9915 27.6284C44.2444 26.3876 45.9759 22.0177 45.8705 18.7409L45.8676 18.7416C45.8111 17.2756 44.9851 16.135 43.6447 15.3642Z" fill="url(#paint18_radial_1024_9523)"/>
<path d="M43.6447 15.3642C43.1397 15.0737 41.9196 14.5697 40.5324 14.5697C40.3924 14.5697 40.2429 14.5696 40.0854 14.5695C38.0822 14.568 34.7999 14.5655 33.5705 14.7842C32.3788 14.9962 31.9934 15.1505 31.8286 15.2185C30.2851 15.7981 29.1933 17.2339 29.1933 18.9125L29.1935 18.9553C28.935 24.7349 33.548 28.2184 37.8634 27.8324C38.2449 27.7822 38.6173 27.7168 38.9915 27.6284C44.2444 26.3876 45.9759 22.0177 45.8705 18.7409L45.8676 18.7416C45.8111 17.2756 44.9851 16.135 43.6447 15.3642Z" fill="url(#paint19_radial_1024_9523)"/>
<path d="M43.6447 15.3642C43.1397 15.0737 41.9196 14.5697 40.5324 14.5697C40.3924 14.5697 40.2429 14.5696 40.0854 14.5695C38.0822 14.568 34.7999 14.5655 33.5705 14.7842C32.3788 14.9962 31.9934 15.1505 31.8286 15.2185C30.2851 15.7981 29.1933 17.2339 29.1933 18.9125L29.1935 18.9553C28.935 24.7349 33.548 28.2184 37.8634 27.8324C38.2449 27.7822 38.6173 27.7168 38.9915 27.6284C44.2444 26.3876 45.9759 22.0177 45.8705 18.7409L45.8676 18.7416C45.8111 17.2756 44.9851 16.135 43.6447 15.3642Z" fill="url(#paint20_radial_1024_9523)"/>
<ellipse cx="2.13091" cy="2.60319" rx="2.13091" ry="2.60319" transform="matrix(0.907465 -0.420129 0.453282 0.891367 39.0957 17.3158)" fill="url(#paint21_linear_1024_9523)"/>
<path d="M19.416 32.27C19.416 32.27 21.4321 35.0151 26.1364 35.0151C30.8406 35.0151 32.8567 32.27 32.8567 32.27" stroke="url(#paint22_radial_1024_9523)" stroke-width="2.3" stroke-linecap="round" stroke-linejoin="round"/>
<defs>
<filter id="filter0_d_1024_9523" x="-2.62695" y="-2.1731" width="57.5312" height="55.4209" filterUnits="userSpaceOnUse" color-interpolation-filters="sRGB">
<feFlood flood-opacity="0" result="BackgroundImageFix"/>
<feColorMatrix in="SourceAlpha" type="matrix" values="0 0 0 0 0 0 0 0 0 0 0 0 0 0 0 0 0 0 127 0" result="hardAlpha"/>
<feOffset dy="2.875"/>
<feGaussianBlur stdDeviation="2.875"/>
<feComposite in2="hardAlpha" operator="out"/>
<feColorMatrix type="matrix" values="0 0 0 0 0 0 0 0 0 0 0 0 0 0 0 0 0 0 0.25 0"/>
<feBlend mode="normal" in2="BackgroundImageFix" result="effect1_dropShadow_1024_9523"/>
<feBlend mode="normal" in="SourceGraphic" in2="effect1_dropShadow_1024_9523" result="shape"/>
</filter>
<filter id="filter1_f_1024_9523" x="6.84852" y="13.1892" width="40.4084" height="18.9853" filterUnits="userSpaceOnUse" color-interpolation-filters="sRGB">
<feFlood flood-opacity="0" result="BackgroundImageFix"/>
<feBlend mode="normal" in="SourceGraphic" in2="BackgroundImageFix" result="shape"/>
<feGaussianBlur stdDeviation="0.69" result="effect1_foregroundBlur_1024_9523"/>
</filter>
<radialGradient id="paint0_radial_1024_9523" cx="0" cy="0" r="1" gradientUnits="userSpaceOnUse" gradientTransform="translate(39.804 13.0546) rotate(134.181) scale(52.6321 52.7607)">
<stop stop-color="#FFF478"/>
<stop offset="0.474827" stop-color="#FFB02E"/>
<stop offset="1" stop-color="#F70A8D"/>
</radialGradient>
<radialGradient id="paint1_radial_1024_9523" cx="0" cy="0" r="1" gradientUnits="userSpaceOnUse" gradientTransform="translate(39.804 13.0546) rotate(133.217) scale(54.6175 54.8371)">
<stop stop-color="#FFF478"/>
<stop offset="0.474827" stop-color="#FFB02E"/>
<stop offset="1" stop-color="#F70A8D"/>
</radialGradient>
<radialGradient id="paint2_radial_1024_9523" cx="0" cy="0" r="1" gradientUnits="userSpaceOnUse" gradientTransform="translate(26.1386 17.8584) rotate(101.838) scale(24.5412 32.8186)">
<stop offset="0.787821" stop-color="#F59639" stop-opacity="0"/>
<stop offset="0.972509" stop-color="#FF7DCE"/>
</radialGradient>
<radialGradient id="paint3_radial_1024_9523" cx="0" cy="0" r="1" gradientUnits="userSpaceOnUse" gradientTransform="translate(29.0155 19.9172) rotate(136.344) scale(57.6584 57.595)">
<stop offset="0.314853" stop-opacity="0"/>
<stop offset="1"/>
</radialGradient>
<radialGradient id="paint4_radial_1024_9523" cx="0" cy="0" r="1" gradientUnits="userSpaceOnUse" gradientTransform="translate(26.1386 24.0348) rotate(77.12) scale(38.7187 40.3983)">
<stop offset="0.507903" stop-color="#7D6133" stop-opacity="0"/>
<stop offset="1" stop-color="#715B32"/>
</radialGradient>
<radialGradient id="paint5_radial_1024_9523" cx="0" cy="0" r="1" gradientUnits="userSpaceOnUse" gradientTransform="translate(26.8578 23.3485) rotate(54.4513) scale(18.5563 13.6699)">
<stop stop-color="#FFB849"/>
<stop offset="1" stop-color="#FFB847" stop-opacity="0"/>
</radialGradient>
<radialGradient id="paint6_radial_1024_9523" cx="0" cy="0" r="1" gradientUnits="userSpaceOnUse" gradientTransform="translate(32.6117 25.4073) rotate(9.42184) scale(16.7686 16.0421)">
<stop stop-color="#FFA64B"/>
<stop offset="0.900412" stop-color="#FFAE46" stop-opacity="0"/>
</radialGradient>
<radialGradient id="paint7_radial_1024_9523" cx="0" cy="0" r="1" gradientUnits="userSpaceOnUse" gradientTransform="translate(28.2963 21.2898) rotate(42.629) scale(83.0915 82.8606)">
<stop offset="0.185425" stop-opacity="0"/>
<stop offset="1" stop-opacity="0.4"/>
</radialGradient>
<linearGradient id="paint8_linear_1024_9523" x1="35.758" y1="22.6819" x2="15.7791" y2="30.6673" gradientUnits="userSpaceOnUse">
<stop stop-color="#E78F00"/>
<stop offset="1" stop-color="#D07000"/>
</linearGradient>
<radialGradient id="paint9_radial_1024_9523" cx="0" cy="0" r="1" gradientUnits="userSpaceOnUse" gradientTransform="translate(33.5095 14.0872) rotate(78.3406) scale(16.9049 36.5797)">
<stop stop-color="#5F5B9B"/>
<stop offset="1" stop-color="#5C3085"/>
</radialGradient>
<radialGradient id="paint10_radial_1024_9523" cx="0" cy="0" r="1" gradientUnits="userSpaceOnUse" gradientTransform="translate(37.488 21.3083) rotate(77.5078) scale(7.58445 8.89232)">
<stop offset="0.776042" stop-color="#77579C"/>
<stop offset="0.9375" stop-color="#77579C" stop-opacity="0"/>
</radialGradient>
<radialGradient id="paint11_radial_1024_9523" cx="0" cy="0" r="1" gradientUnits="userSpaceOnUse" gradientTransform="translate(34.5884 19.9204) rotate(-123.97) scale(6.51648 4.87306)">
<stop offset="0.769354" stop-color="#4E3D92"/>
<stop offset="1" stop-color="#534687" stop-opacity="0"/>
</radialGradient>
<radialGradient id="paint12_radial_1024_9523" cx="0" cy="0" r="1" gradientUnits="userSpaceOnUse" gradientTransform="translate(18.4949 18.6337) rotate(123.062) scale(8.23974 9.54867)">
<stop stop-color="#4C3D70"/>
<stop offset="1" stop-color="#361C5D"/>
</radialGradient>
<radialGradient id="paint13_radial_1024_9523" cx="0" cy="0" r="1" gradientUnits="userSpaceOnUse" gradientTransform="translate(16.7419 18.8481) rotate(87.0003) scale(10.3081 16.0383)">
<stop offset="0.647365" stop-color="#5B2B84" stop-opacity="0"/>
<stop offset="1" stop-color="#5B2B84"/>
</radialGradient>
<radialGradient id="paint14_radial_1024_9523" cx="0" cy="0" r="1" gradientUnits="userSpaceOnUse" gradientTransform="translate(14.3145 29.2279) rotate(-99.9615) scale(15.8515 16.4075)">
<stop offset="0.858612" stop-color="#2E1D57" stop-opacity="0"/>
<stop offset="1" stop-color="#20143D"/>
</radialGradient>
<radialGradient id="paint15_radial_1024_9523" cx="0" cy="0" r="1" gradientUnits="userSpaceOnUse" gradientTransform="translate(15.708 17.8188) rotate(102.794) scale(10.556 10.3374)">
<stop offset="0.872281" stop-color="#2E1D57" stop-opacity="0"/>
<stop offset="1" stop-color="#20143D" stop-opacity="0.6"/>
</radialGradient>
<linearGradient id="paint16_linear_1024_9523" x1="3.06332" y1="0.736532" x2="1.17068" y2="5.1575" gradientUnits="userSpaceOnUse">
<stop stop-color="white"/>
<stop offset="0.973958" stop-color="white" stop-opacity="0"/>
</linearGradient>
<radialGradient id="paint17_radial_1024_9523" cx="0" cy="0" r="1" gradientUnits="userSpaceOnUse" gradientTransform="translate(38.5884 18.0761) rotate(122.494) scale(9.20436 14.1153)">
<stop stop-color="#4C3D70"/>
<stop offset="1" stop-color="#361C5D"/>
</radialGradient>
<radialGradient id="paint18_radial_1024_9523" cx="0" cy="0" r="1" gradientUnits="userSpaceOnUse" gradientTransform="translate(35.5315 18.8481) rotate(92.9997) scale(10.3081 16.0383)">
<stop offset="0.647365" stop-color="#5B2B84" stop-opacity="0"/>
<stop offset="1" stop-color="#5B2B84"/>
</radialGradient>
<radialGradient id="paint19_radial_1024_9523" cx="0" cy="0" r="1" gradientUnits="userSpaceOnUse" gradientTransform="translate(37.5291 27.3836) rotate(-77.0264) scale(14.1288 14.5975)">
<stop offset="0.858612" stop-color="#2E1D57" stop-opacity="0"/>
<stop offset="1" stop-color="#20143D"/>
</radialGradient>
<radialGradient id="paint20_radial_1024_9523" cx="0" cy="0" r="1" gradientUnits="userSpaceOnUse" gradientTransform="translate(36.5654 17.8188) rotate(77.2065) scale(10.556 10.3374)">
<stop offset="0.872281" stop-color="#2E1D57" stop-opacity="0"/>
<stop offset="1" stop-color="#20143D" stop-opacity="0.6"/>
</radialGradient>
<linearGradient id="paint21_linear_1024_9523" x1="3.06332" y1="0.736532" x2="1.17068" y2="5.1575" gradientUnits="userSpaceOnUse">
<stop stop-color="white"/>
<stop offset="0.973958" stop-color="white" stop-opacity="0"/>
</linearGradient>
<radialGradient id="paint22_radial_1024_9523" cx="0" cy="0" r="1" gradientUnits="userSpaceOnUse" gradientTransform="translate(26.1364 30.6432) rotate(90) scale(15.012 24.2647)">
<stop offset="0.145833" stop-color="#2E1529"/>
<stop offset="0.276042" stop-color="#503A4A"/>
<stop offset="0.342857" stop-color="#4B2744"/>
</radialGradient>
</defs>
</svg>
